<svg xmlns="http://www.w3.org/2000/svg" fill-rule="evenodd" viewBox="0 0 100 100">
    <path d="M67.5 88H24V41l25.6-22L75 40.42v9.08a1.5 1.5 0 0 0 3 0v-6.56l8.53 7.2a1.5 1.5 0 0 0 1.94-2.29l-37.91-32a1.5 1.5 0 0 0-1.95 0l-37.09 31.9a1.5 1.5 0 0 0 2 2.28L21 43.56V89.5a1.5 1.5 0 0 0 1.5 1.5h45a1.5 1.5 0 0 0 0-3Z"/>
    <path d="M92 71.33a13.51 13.51 0 0 1-9.84-4.12A14.65 14.65 0 0 1 78 57.87v-.59a1.44 1.44 0 0 0-.1-.49 1.52 1.52 0 0 0-1.49-1.29 1.5 1.5 0 0 0-1.46 1.5v.88c-.26 7.33-6.68 13.28-14.61 13.36H60a1.5 1.5 0 0 0 0 3 14.83 14.83 0 0 1 14.68 14.48 2 2 0 0 0 1.68 1.78 1.5 1.5 0 0 0 1.5-1.5c-.08-8 6.14-14.58 13.76-14.67H92a1.5 1.5 0 0 0 0-3ZM76.23 82a18 18 0 0 0-9-9.09 17.45 17.45 0 0 0 9.26-8.7 17.49 17.49 0 0 0 3.51 5.1 16.86 16.86 0 0 0 5 3.5A17.32 17.32 0 0 0 76.23 82ZM17.5 18.36h.1a8.2 8.2 0 0 1 8 8A1.78 1.78 0 0 0 27.22 28a1.5 1.5 0 0 0 1.48-1.52 7.85 7.85 0 0 1 7.56-8.08h.24a1.5 1.5 0 0 0 0-3 7.29 7.29 0 0 1-5.4-2.26A8.09 8.09 0 0 1 28.8 8v-.35a1.49 1.49 0 0 0-.07-.42A1.48 1.48 0 0 0 27.25 6a1.5 1.5 0 0 0-1.48 1.52v.52a7.93 7.93 0 0 1-8.07 7.31h-.24a1.5 1.5 0 0 0 0 3Zm9.79-5.3a11 11 0 0 0 1.65 2.18A10.74 10.74 0 0 0 31 16.89 10.9 10.9 0 0 0 27.12 21a11.42 11.42 0 0 0-1.87-2.41A11.23 11.23 0 0 0 23.16 17a11 11 0 0 0 4.13-3.94ZM42.5 45a1.5 1.5 0 0 0-1.5 1.5v16a1.5 1.5 0 0 0 1.5 1.5h16a1.5 1.5 0 0 0 1.5-1.5v-16a1.5 1.5 0 0 0-1.5-1.5ZM57 61H44V48h13Z"/>
</svg>
