<svg xmlns="http://www.w3.org/2000/svg" fill-rule="evenodd" viewBox="0 0 100 100">
    <path d="M68.152 62.067c-.516-.274-1.345-.714-1.542-.795a34.744 34.744 0 0 0-15.17-3.468c-19.281 0-34.964 15.694-34.947 34.978.001.816.684 1.468 1.5 1.468h66.896c.816 0 1.499-.652 1.5-1.468.01-13.234-7.373-24.774-18.237-30.715zM36 77.25h29v14H36v-14zm29-13.26v10.26H36v-9.5c0-.043-.009-.083-.013-.125a31.737 31.737 0 0 1 15.128-3.821c4.975 0 9.684 1.15 13.885 3.186zm-32 2.469V91.25H19.203C19.681 80.977 25.039 71.962 33 66.459zM68 91.25v-25.6c8.638 5.401 14.527 14.806 15.028 25.6H68zm-37.675-56h.476c.747 10.425 9.442 18.684 20.051 18.684 10.613 0 19.312-8.259 20.06-18.684h.476c2.052 0 3.659-2.041 3.659-4.647 0-1.972-.922-3.616-2.259-4.301A21.905 21.905 0 0 0 56.851 6.606c-.964-2.385-3.3-4.075-6.026-4.075-2.734 0-5.075 1.7-6.034 4.096a21.907 21.907 0 0 0-15.864 19.675c-1.337.685-2.259 2.33-2.259 4.301-.002 2.606 1.606 4.647 3.657 4.647zm20.527 15.684c-8.954 0-16.312-6.914-17.051-15.684h34.11c-.738 8.77-8.1 15.684-17.059 15.684zM71.394 32.25H30.319c-.153-.023-.66-.584-.66-1.648 0-.675.203-1.124.392-1.384.099.021.201.032.307.032h40.997c.105 0 .208-.011.306-.032.189.261.392.709.392 1.384 0 1.064-.507 1.624-.659 1.648zm-1.928-6H57V9.899A18.924 18.924 0 0 1 69.466 26.25zM54 9.11v17.14h-7V9.03a3.513 3.513 0 0 1 4.635-3.32C53.08 6.17 54 7.594 54 9.11zm-10 .814V26.25H31.6A18.924 18.924 0 0 1 44 9.924z"/>
</svg>
