<?xml version="1.0" encoding="UTF-8"?> <svg xmlns="http://www.w3.org/2000/svg" viewBox="1950 2450 100 100" width="100" height="100"><path fill="none" stroke="#008069" fill-opacity="1" stroke-width="3" stroke-opacity="1" color="rgb(51, 51, 51)" stroke-linecap="round" stroke-linejoin="round" stroke-miterlimit="10" class="st0" id="tSvg1164fe3ecd1" d="M 1977.6 2473.7 C 1984.1 2473.2 1987 2471.9 1991.8 2469.9 C 1997.2 2467.6 1999.5 2464.3 2005.4 2463.7 C 2008.4 2463.4 2017.3 2470.2 2020.2 2470.9"></path><path fill="none" stroke="#008069" fill-opacity="1" stroke-width="3" stroke-opacity="1" color="rgb(51, 51, 51)" stroke-linecap="round" stroke-linejoin="round" stroke-miterlimit="10" class="st0" id="tSvg183126eca65" d="M 1960.1 2545.8 C 1960.1 2523.7 1978 2505.8 2000.1 2505.8 C 2022.2 2505.8 2040.1 2523.7 2040.1 2545.8C 2013.4333333333334 2545.8 1986.7666666666667 2545.8 1960.1 2545.8Z"></path><ellipse color="rgb(51, 51, 51)" stroke-linecap="round" stroke-linejoin="round" stroke-miterlimit="10" stroke-width="3" stroke="#008069" class="st0" cx="1999.3" cy="2475.7" r="22.3" id="tSvgbb9640ab21" fill="none" fill-opacity="1" stroke-opacity="1" rx="22.3" ry="22.3" style="transform: rotate(0deg);"></ellipse><path fill="none" stroke="#008069" fill-opacity="1" stroke-width="3" stroke-opacity="1" color="rgb(51, 51, 51)" stroke-linecap="round" stroke-linejoin="round" stroke-miterlimit="10" class="st0" id="tSvg156c19b5f49" d="M 1982.6 2510.2 C 1988.6 2514.3 1994.6 2518.4 2000.6 2522.5 C 2006.2 2518.4 2011.8 2514.3 2017.4 2510.2"></path><defs> </defs></svg> 