<?xml version="1.0" encoding="UTF-8"?> <svg xmlns="http://www.w3.org/2000/svg" viewBox="1950 2450 100 100" width="100" height="100"><path fill="#008069" stroke="#008069" fill-opacity="1" stroke-width="1" stroke-opacity="1" color="rgb(51, 51, 51)" fill-rule="evenodd" id="tSvgf4937514bc" d="M 2035.309 2504.327 C 2027.7196666666666 2503.2243333333336 2020.1303333333333 2502.1216666666664 2012.541 2501.019 C 2009.1473333333333 2494.1426666666666 2005.7536666666667 2487.2663333333335 2002.36 2480.39 C 2001.8522940493017 2479.35461851679 2000.414144496882 2479.2571129047074 1999.7713308051636 2480.2144898972697 C 1999.7336306541374 2480.270638759177 1999.6997762652925 2480.3292762805313 1999.67 2480.39 C 1996.2766666666666 2487.2663333333335 1992.8833333333334 2494.1426666666666 1989.49 2501.019 C 1981.9006666666667 2502.1216666666664 1974.3113333333333 2503.2243333333336 1966.722 2504.327 C 1965.5792854575911 2504.4929421824027 1965.0447265456585 2505.8336808258555 1965.7597939623831 2506.740329557654 C 1965.8003059606897 2506.7916955561996 1965.8441348939216 2506.8403562748495 1965.891 2506.886 C 1971.382 2512.2383333333332 1976.873 2517.5906666666665 1982.364 2522.943 C 1981.068 2530.501 1979.772 2538.059 1978.476 2545.617 C 1978.2799248868937 2546.7549314053817 1979.3892248220648 2547.6783960709713 1980.4727398834425 2547.279236397281 C 1980.5345224319913 2547.2564761212147 1980.594739378824 2547.2296726831555 1980.653 2547.199 C 1987.44 2543.6303333333335 1994.227 2540.0616666666665 2001.0140000000001 2536.493 C 2007.802 2540.0616666666665 2014.59 2543.6303333333335 2021.378 2547.199 C 2021.8836263017097 2547.4639116114345 2022.4956406830765 2547.41975361224 2022.958 2547.085 C 2023.42 2546.749 2023.651 2546.18 2023.555 2545.617 C 2022.2576666666666 2538.059 2020.9603333333334 2530.501 2019.663 2522.943 C 2025.1546666666666 2517.5906666666665 2030.6463333333334 2512.2383333333332 2036.138 2506.886 C 2036.9648647298297 2506.078902470412 2036.6079464815418 2504.6793591870123 2035.495547152672 2504.36682209028C 2035.4342719591602 2504.3496063561593 2035.3719637909821 2504.3363054750757 2035.309 2504.327Z M 2017.007 2521.345 C 2016.653154352445 2521.689552881911 2016.4915918649735 2522.1862079358307 2016.575 2522.673 C 2017.7453333333333 2529.4913333333334 2018.9156666666668 2536.3096666666665 2020.086 2543.128 C 2013.962 2539.9086666666667 2007.838 2536.6893333333333 2001.714 2533.47 C 2001.2768501683338 2533.240960935552 2000.7551498316661 2533.240960935552 2000.318 2533.47 C 1994.195 2536.6893333333333 1988.0720000000001 2539.9086666666667 1981.949 2543.128 C 1983.118 2536.3096666666665 1984.287 2529.4913333333334 1985.456 2522.673 C 1985.5394081350264 2522.1862079358307 1985.3778456475552 2521.689552881911 1985.024 2521.345 C 1980.0706666666667 2516.516666666667 1975.1173333333334 2511.6883333333335 1970.164 2506.86 C 1977.0106666666666 2505.865333333333 1983.8573333333334 2504.8706666666667 1990.704 2503.876 C 1991.1922979445878 2503.804999415159 1991.6144453404163 2503.498391033488 1991.833 2503.056 C 1994.8943333333334 2496.8526666666667 1997.9556666666667 2490.6493333333333 2001.017 2484.446 C 2004.0786666666668 2490.6493333333333 2007.1403333333333 2496.8526666666667 2010.202 2503.056 C 2010.4205546595836 2503.498391033488 2010.8427020554122 2503.804999415159 2011.331 2503.876 C 2018.1776666666667 2504.8706666666667 2025.0243333333333 2505.865333333333 2031.871 2506.86C 2026.9163333333333 2511.6883333333335 2021.9616666666666 2516.516666666667 2017.007 2521.345Z M 1975.549 2488.009 C 1976.7044653967914 2488.005620573852 1977.4229729434053 2486.7526804489617 1976.842313576115 2485.7537077752204 C 1976.6892234680236 2485.490329892733 1976.4596167612106 2485.2797686060608 1976.184 2485.15 C 1970.9283333333333 2482.6943333333334 1965.6726666666666 2480.2386666666666 1960.417 2477.783 C 1959.370456418716 2477.2945616579805 1958.1876166655059 2478.122204353927 1958.2878884437764 2479.2727568524965 C 1958.334424739235 2479.8067301392716 1958.6622974150853 2480.2753149833106 1959.148 2480.502 C 1964.4036666666666 2482.9576666666667 1969.6593333333333 2485.4133333333334 1974.915 2487.869C 1975.12 2487.964 1975.336 2488.009 1975.549 2488.009Z M 2041.576 2478.507 C 2041.224079956114 2477.7578039165023 2040.3329271409584 2477.4337889752046 2039.5819999999999 2477.782 C 2034.3263333333334 2480.237666666667 2029.0706666666667 2482.693333333333 2023.815 2485.149 C 2022.7696061716576 2485.6412026486796 2022.6490600231566 2487.080501320777 2023.5980169348943 2487.739737608741 C 2023.8482082249618 2487.913544422628 2024.1453630089252 2488.0071090185684 2024.45 2488.008 C 2024.663 2488.008 2024.879 2487.963 2025.084 2487.867 C 2030.3396666666667 2485.4113333333335 2035.5953333333334 2482.9556666666667 2040.851 2480.5C 2041.602266888463 2480.1505039429444 2041.9271132775618 2479.25751242356 2041.576 2478.507Z M 2001.016 2472.984 C 2001.8444271247463 2472.984 2002.516 2472.312427124746 2002.516 2471.484 C 2002.516 2465.699666666667 2002.516 2459.9153333333334 2002.516 2454.131 C 2002.516 2452.976299461621 2001.266 2452.2546116251337 2000.266 2452.8319618943233 C 1999.8018983848622 2453.0999110867547 1999.516 2453.5951016151375 1999.516 2454.131 C 1999.516 2459.9153333333334 1999.516 2465.699666666667 1999.516 2471.484C 1999.516 2472.312427124746 2000.1875728752539 2472.984 2001.016 2472.984Z"></path><defs> </defs></svg> 